{"title":"Krishna Gadi Veera Prema Gadha 2016 TS Telugu Movies xviD-TvMovi","uid":13926571,"size":733946433,"categoryP":"video","categoryS":"movies","magnet":"?xt=urn:btih:68ac222626f7507639fd931e52c2069f13a217fa&amp;dn=Krishna+Gadi+Veera+Prema+Gadha+2016+TS+Telugu+Movies+xviD-TvMovi&amp;tr=udp%3A%2F%2Ftracker.leechers-paradise.org%3A6969&amp;tr=udp%3A%2F%2Fzer0day.ch%3A1337&amp;tr=udp%3A%2F%2Fopen.demonii.com%3A1337&amp;tr=udp%3A%2F%2Ftracker.coppersurfer.tk%3A6969&amp;tr=udp%3A%2F%2Fexodus.desync.com%3A6969","seeders":8,"leechers":1,"uploader":"TvMovize","files":1,"time":1458385286,"description":"Krishna Gadi Veera Prema Gadha 2016 TS Telugu Movies xviD-TvMovize.mp4\r\n\r\n++ ScreenShots ++\r\n \nhttp://www.image2be.com/movie/KrishnaGadiVeeraPremaGadha/1.html  \nhttp://www.image2be.com/movie/KrishnaGadiVeeraPremaGadha/2.html  \nhttp://www.image2be.com/movie/KrishnaGadiVeeraPremaGadha/3.html  \nhttp://www.image2be.com/movie/KrishnaGadiVeeraPremaGadha/4.html  \nhttp://www.image2be.com/movie/KrishnaGadiVeeraPremaGadha/5.html \r\n\r\n++ Info ++\r\n\r\n\r\nFormat : MPEG-4 \r\nFormat profile : Base Media \r\nCodec ID : isom (isom/iso2/avc1/mp41) \r\nFile size : 700 MiB \r\nDuration : 2h 24mn \r\nOverall bit rate : 677 Kbps \r\nWriting application : Lavf57.20.100 \r\n\r\nVideo \r\nID : 1 \r\nFormat : AVC \r\nFormat/Info : Advanced Video Codec \r\nFormat profile :    \r\nFormat settings, CABAC : Yes \r\nFormat settings, ReFrames : 4 frames \r\nCodec ID : avc1 \r\nCodec ID/Info : Advanced Video Coding \r\nDuration : 2h 24mn \r\nBit rate : 608 Kbps \r\nWidth : 720 pixels \r\nHeight : 312 pixels \r\nDisplay aspect ratio : 2.35:1 \r\nFrame rate mode : Constant \r\nFrame rate : 25.000 fps \r\nColor space : YUV \r\nChroma subsampling : 4:2:0 \r\nBit depth : 8 bits \r\nScan type : Progressive \r\nBits/(Pixel*Frame) : 0.108 \r\nStream size : 628 MiB (90%) \r\nWriting library : x264 core 148 r2638 7599210 \r\nEncoding settings : cabac=1 / ref=3 / deblock=1:1:1 / analyse=0x3:0x113 / me=hex / subme=6 / psy=1 / psy_rd=0.40:0.00 / mixed_ref=1 / me_range=16 / chroma_me=1 / trellis=1 / 8x8dct=1 / cqm=0 / deadzone=21,11 / fast_pskip=1 / chroma_qp_offset=-2 / threads=6 / lookahead_threads=1 / sliced_threads=0 / nr=0 / decimate=1 / interlaced=0 / bluray_compat=0 / constrained_intra=0 / bframes=5 / b_pyramid=2 / b_adapt=1 / b_bias=0 / direct=1 / weightb=1 / open_gop=0 / weightp=1 / keyint=250 / keyint_min=25 / scenecut=40 / intra_refresh=0 / rc_lookahead=30 / rc=2pass / mbtree=1 / bitrate=608 / ratetol=1.0 / qcomp=0.60 / qpmin=0 / qpmax=69 / qpstep=4 / cplxblur=20.0 / qblur=0.5 / ip_ratio=1.40 / aq=1:0.60 \r\n\r\nAudio \r\nID : 2 \r\nFormat : AAC \r\nFormat/Info : Advanced Audio Codec \r\nFormat profile : HE-AAC / LC \r\nCodec ID : 40 \r\nDuration : 2h 24mn \r\nBit rate mode : Constant \r\nBit rate : 64.0 Kbps \r\nChannel(s) : 2 channels \r\nChannel positions : Front: L R \r\nSampling rate : 48.0 KHz / 24.0 KHz \r\nFrame rate : 23.438 fps (1024 spf) \r\nCompression mode : Lossy \r\nStream size : 66.1 MiB (9%) \r\nLanguage : English \r\nDefault : Yes \r\nAlternate group : 1","torrent":{"xt":"urn:btih:68ac222626f7507639fd931e52c2069f13a217fa","amp;dn":"Krishna+Gadi+Veera+Prema+Gadha+2016+TS+Telugu+Movies+xviD-TvMovi","amp;tr":["udp%3A%2F%2Ftracker.leechers-paradise.org%3A6969","udp%3A%2F%2Fzer0day.ch%3A1337","udp%3A%2F%2Fopen.demonii.com%3A1337","udp%3A%2F%2Ftracker.coppersurfer.tk%3A6969","udp%3A%2F%2Fexodus.desync.com%3A6969"],"infoHash":"68ac222626f7507639fd931e52c2069f13a217fa","infoHashBuffer":{"type":"Buffer","data":[104,172,34,38,38,247,80,118,57,253,147,30,82,194,6,159,19,162,23,250]},"announce":[],"urlList":[]}}